<mxfile host="Electron" modified="2024-06-13T04:08:19.197Z" agent="Mozilla/5.0 (Windows NT 10.0; Win64; x64) AppleWebKit/537.36 (KHTML, like Gecko) draw.io/22.1.18 Chrome/120.0.6099.199 Electron/28.1.2 Safari/537.36" etag="JGnoCHHiQ8dGGVAFSuZT" version="22.1.18" type="device">
  <diagram name="ページ1" id="F72T8sjxZpWGAnclQy33">
    <mxGraphModel dx="1886" dy="892" grid="1" gridSize="10" guides="1" tooltips="1" connect="1" arrows="1" fold="1" page="1" pageScale="1" pageWidth="1654" pageHeight="1169" math="0" shadow="0">
      <root>
        <mxCell id="0" />
        <mxCell id="1" parent="0" />
        <mxCell id="ZSukXJgvBtYMUmeR0BDP-56" value="暑さ指数計測記録(WBGT)" style="rounded=0;whiteSpace=wrap;html=1;fillColor=#dae8fc;strokeColor=#6c8ebf;" vertex="1" parent="1">
          <mxGeometry x="93" y="96" width="337" height="44" as="geometry" />
        </mxCell>
        <mxCell id="T-9K0718TZzX3F1PyiCi-1" value="" style="verticalLabelPosition=bottom;verticalAlign=top;html=1;shadow=0;dashed=0;strokeWidth=1;shape=mxgraph.android.phone2;strokeColor=#c0c0c0;" parent="1" vertex="1">
          <mxGeometry x="580" y="40" width="320" height="680" as="geometry" />
        </mxCell>
        <mxCell id="T-9K0718TZzX3F1PyiCi-2" value="" style="verticalLabelPosition=bottom;verticalAlign=top;html=1;shadow=0;dashed=0;strokeWidth=1;shape=mxgraph.android.progressScrubberFocused;dx=0.49;fillColor=#33b5e5;" parent="1" vertex="1">
          <mxGeometry x="640.25" y="390" width="200" height="16" as="geometry" />
        </mxCell>
        <mxCell id="T-9K0718TZzX3F1PyiCi-3" value="31" style="rounded=0;whiteSpace=wrap;html=1;" parent="1" vertex="1">
          <mxGeometry x="640.25" y="350" width="200" height="30" as="geometry" />
        </mxCell>
        <mxCell id="T-9K0718TZzX3F1PyiCi-4" value="気温(℃)" style="text;html=1;strokeColor=none;fillColor=none;align=center;verticalAlign=middle;whiteSpace=wrap;rounded=0;" parent="1" vertex="1">
          <mxGeometry x="640.25" y="320" width="60" height="30" as="geometry" />
        </mxCell>
        <mxCell id="T-9K0718TZzX3F1PyiCi-5" value="" style="verticalLabelPosition=bottom;verticalAlign=top;html=1;shadow=0;dashed=0;strokeWidth=1;shape=mxgraph.android.progressScrubberFocused;dx=0.31;fillColor=#33b5e5;" parent="1" vertex="1">
          <mxGeometry x="640.25" y="480" width="200" height="16" as="geometry" />
        </mxCell>
        <mxCell id="T-9K0718TZzX3F1PyiCi-6" value="80" style="rounded=0;whiteSpace=wrap;html=1;" parent="1" vertex="1">
          <mxGeometry x="640.25" y="442" width="200" height="28" as="geometry" />
        </mxCell>
        <mxCell id="T-9K0718TZzX3F1PyiCi-7" value="湿度(%)" style="text;html=1;strokeColor=none;fillColor=none;align=center;verticalAlign=middle;whiteSpace=wrap;rounded=0;" parent="1" vertex="1">
          <mxGeometry x="640.25" y="412" width="60" height="30" as="geometry" />
        </mxCell>
        <mxCell id="T-9K0718TZzX3F1PyiCi-8" value="" style="verticalLabelPosition=bottom;verticalAlign=top;html=1;shadow=0;dashed=0;strokeWidth=1;shape=mxgraph.android.progressScrubberFocused;dx=0.31;fillColor=#33b5e5;" parent="1" vertex="1">
          <mxGeometry x="639.75" y="580" width="200.5" height="16" as="geometry" />
        </mxCell>
        <mxCell id="T-9K0718TZzX3F1PyiCi-9" value="30" style="rounded=0;whiteSpace=wrap;html=1;" parent="1" vertex="1">
          <mxGeometry x="640.25" y="540" width="200" height="30" as="geometry" />
        </mxCell>
        <mxCell id="T-9K0718TZzX3F1PyiCi-10" value="WBGT値(℃)" style="text;html=1;strokeColor=none;fillColor=none;align=center;verticalAlign=middle;whiteSpace=wrap;rounded=0;" parent="1" vertex="1">
          <mxGeometry x="640.25" y="510" width="70" height="30" as="geometry" />
        </mxCell>
        <mxCell id="T-9K0718TZzX3F1PyiCi-12" value="2024/6/1" style="rounded=0;whiteSpace=wrap;html=1;" parent="1" vertex="1">
          <mxGeometry x="640.25" y="210" width="199.75" height="30" as="geometry" />
        </mxCell>
        <mxCell id="T-9K0718TZzX3F1PyiCi-13" value="計測日" style="text;html=1;strokeColor=none;fillColor=none;align=center;verticalAlign=middle;whiteSpace=wrap;rounded=0;" parent="1" vertex="1">
          <mxGeometry x="639.75" y="180" width="60" height="30" as="geometry" />
        </mxCell>
        <mxCell id="T-9K0718TZzX3F1PyiCi-14" value="8:00" style="rounded=0;whiteSpace=wrap;html=1;" parent="1" vertex="1">
          <mxGeometry x="640.25" y="280" width="199.75" height="30" as="geometry" />
        </mxCell>
        <mxCell id="T-9K0718TZzX3F1PyiCi-15" value="時刻" style="text;html=1;strokeColor=none;fillColor=none;align=center;verticalAlign=middle;whiteSpace=wrap;rounded=0;" parent="1" vertex="1">
          <mxGeometry x="639.75" y="250" width="60" height="30" as="geometry" />
        </mxCell>
        <mxCell id="T-9K0718TZzX3F1PyiCi-16" value="選択した日付が自動入力" style="text;html=1;strokeColor=none;fillColor=none;align=center;verticalAlign=middle;whiteSpace=wrap;rounded=0;" parent="1" vertex="1">
          <mxGeometry x="840" y="200" width="200" height="40" as="geometry" />
        </mxCell>
        <mxCell id="T-9K0718TZzX3F1PyiCi-17" value="[8:00,10:00,13:00]の選択式&lt;br&gt;近しい時間を自動入力" style="text;html=1;strokeColor=none;fillColor=none;align=center;verticalAlign=middle;whiteSpace=wrap;rounded=0;" parent="1" vertex="1">
          <mxGeometry x="840" y="280" width="200" height="40" as="geometry" />
        </mxCell>
        <mxCell id="T-9K0718TZzX3F1PyiCi-18" value="A工事" style="rounded=0;whiteSpace=wrap;html=1;" parent="1" vertex="1">
          <mxGeometry x="640" y="150" width="200" height="30" as="geometry" />
        </mxCell>
        <mxCell id="T-9K0718TZzX3F1PyiCi-19" value="工事名" style="text;html=1;strokeColor=none;fillColor=none;align=center;verticalAlign=middle;whiteSpace=wrap;rounded=0;" parent="1" vertex="1">
          <mxGeometry x="640.25" y="120" width="60" height="30" as="geometry" />
        </mxCell>
        <mxCell id="T-9K0718TZzX3F1PyiCi-20" value="選択式？&lt;br&gt;追加どうするか？&lt;br&gt;2回目以降自動選択" style="text;html=1;strokeColor=none;fillColor=none;align=left;verticalAlign=middle;whiteSpace=wrap;rounded=0;" parent="1" vertex="1">
          <mxGeometry x="1080" y="110" width="170" height="60" as="geometry" />
        </mxCell>
        <mxCell id="bO0XZ3F-v_X8p2w4Crle-1" value="・3点の入力（計算はなし）&lt;br&gt;・帳票は必要ない（社内管理用兼、第三機関のパトで証拠）&lt;br&gt;・記録者なし&lt;br&gt;・気温とWBGTは15度～44度、湿度0%~100%&lt;br&gt;・工事は管理者側で登録（一旦）&lt;br&gt;・時刻は現在時刻に近しい時刻で&lt;br&gt;・SUBMIT、オフライン対応" style="text;html=1;strokeColor=none;fillColor=none;align=left;verticalAlign=top;whiteSpace=wrap;rounded=0;" parent="1" vertex="1">
          <mxGeometry x="1080" y="435" width="360" height="120" as="geometry" />
        </mxCell>
        <mxCell id="bO0XZ3F-v_X8p2w4Crle-3" value="・アプリ化&lt;br&gt;PWA + オフライン対応&lt;br&gt;&lt;br&gt;・DB&lt;br&gt;Firebase" style="text;html=1;strokeColor=#6c8ebf;fillColor=#dae8fc;align=left;verticalAlign=top;whiteSpace=wrap;rounded=0;" parent="1" vertex="1">
          <mxGeometry x="1080" y="320" width="170" height="100" as="geometry" />
        </mxCell>
        <mxCell id="ZSukXJgvBtYMUmeR0BDP-1" value="" style="verticalLabelPosition=bottom;verticalAlign=top;html=1;shadow=0;dashed=0;strokeWidth=1;shape=mxgraph.android.phone2;strokeColor=#c0c0c0;" vertex="1" parent="1">
          <mxGeometry x="80" y="40" width="360" height="680" as="geometry" />
        </mxCell>
        <mxCell id="ZSukXJgvBtYMUmeR0BDP-2" value="" style="strokeWidth=1;shadow=0;dashed=0;align=center;html=1;shape=mxgraph.mockup.forms.rrect;rSize=5;strokeColor=#999999;fillColor=#ffffff;" vertex="1" parent="1">
          <mxGeometry x="100" y="160" width="320" height="480" as="geometry" />
        </mxCell>
        <mxCell id="ZSukXJgvBtYMUmeR0BDP-3" value="&lt;font style=&quot;font-size: 22px;&quot;&gt;2024年6月&lt;/font&gt;" style="strokeWidth=1;shadow=0;dashed=0;align=center;html=1;shape=mxgraph.mockup.forms.anchor;fontColor=#999999;" vertex="1" parent="ZSukXJgvBtYMUmeR0BDP-2">
          <mxGeometry x="60" y="21.942857142857136" width="200" height="54.85714285714285" as="geometry" />
        </mxCell>
        <mxCell id="ZSukXJgvBtYMUmeR0BDP-4" value="&lt;" style="strokeWidth=1;shadow=0;dashed=0;align=center;html=1;shape=mxgraph.mockup.forms.rrect;rSize=4;strokeColor=#999999;fontColor=#008cff;fontSize=19;fontStyle=1;" vertex="1" parent="ZSukXJgvBtYMUmeR0BDP-2">
          <mxGeometry x="16" y="21.942857142857136" width="50" height="54.85714285714285" as="geometry" />
        </mxCell>
        <mxCell id="ZSukXJgvBtYMUmeR0BDP-5" value="&gt;" style="strokeWidth=1;shadow=0;dashed=0;align=center;html=1;shape=mxgraph.mockup.forms.rrect;rSize=4;strokeColor=#999999;fontColor=#008cff;fontSize=19;fontStyle=1;" vertex="1" parent="ZSukXJgvBtYMUmeR0BDP-2">
          <mxGeometry x="254" y="21.942857142857136" width="50" height="54.85714285714285" as="geometry" />
        </mxCell>
        <mxCell id="ZSukXJgvBtYMUmeR0BDP-6" value="Mo" style="strokeWidth=1;shadow=0;dashed=0;align=center;html=1;shape=mxgraph.mockup.forms.anchor;fontColor=#999999;" vertex="1" parent="ZSukXJgvBtYMUmeR0BDP-2">
          <mxGeometry x="20" y="76.79999999999998" width="40" height="54.85714285714285" as="geometry" />
        </mxCell>
        <mxCell id="ZSukXJgvBtYMUmeR0BDP-7" value="Tu" style="strokeWidth=1;shadow=0;dashed=0;align=center;html=1;shape=mxgraph.mockup.forms.anchor;fontColor=#999999;" vertex="1" parent="ZSukXJgvBtYMUmeR0BDP-2">
          <mxGeometry x="60" y="76.79999999999998" width="40" height="54.85714285714285" as="geometry" />
        </mxCell>
        <mxCell id="ZSukXJgvBtYMUmeR0BDP-8" value="We" style="strokeWidth=1;shadow=0;dashed=0;align=center;html=1;shape=mxgraph.mockup.forms.anchor;fontColor=#999999;" vertex="1" parent="ZSukXJgvBtYMUmeR0BDP-2">
          <mxGeometry x="100" y="76.79999999999998" width="40" height="54.85714285714285" as="geometry" />
        </mxCell>
        <mxCell id="ZSukXJgvBtYMUmeR0BDP-9" value="Th" style="strokeWidth=1;shadow=0;dashed=0;align=center;html=1;shape=mxgraph.mockup.forms.anchor;fontColor=#999999;" vertex="1" parent="ZSukXJgvBtYMUmeR0BDP-2">
          <mxGeometry x="140" y="76.79999999999998" width="40" height="54.85714285714285" as="geometry" />
        </mxCell>
        <mxCell id="ZSukXJgvBtYMUmeR0BDP-10" value="Fr" style="strokeWidth=1;shadow=0;dashed=0;align=center;html=1;shape=mxgraph.mockup.forms.anchor;fontColor=#999999;" vertex="1" parent="ZSukXJgvBtYMUmeR0BDP-2">
          <mxGeometry x="180" y="76.79999999999998" width="40" height="54.85714285714285" as="geometry" />
        </mxCell>
        <mxCell id="ZSukXJgvBtYMUmeR0BDP-11" value="Sa" style="strokeWidth=1;shadow=0;dashed=0;align=center;html=1;shape=mxgraph.mockup.forms.anchor;fontColor=#999999;" vertex="1" parent="ZSukXJgvBtYMUmeR0BDP-2">
          <mxGeometry x="220" y="76.79999999999998" width="40" height="54.85714285714285" as="geometry" />
        </mxCell>
        <mxCell id="ZSukXJgvBtYMUmeR0BDP-12" value="Su" style="strokeWidth=1;shadow=0;dashed=0;align=center;html=1;shape=mxgraph.mockup.forms.anchor;fontColor=#999999;" vertex="1" parent="ZSukXJgvBtYMUmeR0BDP-2">
          <mxGeometry x="260" y="76.79999999999998" width="40" height="54.85714285714285" as="geometry" />
        </mxCell>
        <mxCell id="ZSukXJgvBtYMUmeR0BDP-13" value="1" style="strokeWidth=1;shadow=0;dashed=0;align=right;html=1;shape=mxgraph.mockup.forms.rrect;rSize=0;strokeColor=#999999;fontColor=#999999;verticalAlign=top;" vertex="1" parent="ZSukXJgvBtYMUmeR0BDP-2">
          <mxGeometry x="20" y="131.65714285714282" width="40" height="54.85714285714285" as="geometry" />
        </mxCell>
        <mxCell id="ZSukXJgvBtYMUmeR0BDP-14" value="2" style="strokeWidth=1;shadow=0;dashed=0;align=right;html=1;shape=mxgraph.mockup.forms.rrect;rSize=0;strokeColor=#999999;fontColor=#999999;verticalAlign=top;" vertex="1" parent="ZSukXJgvBtYMUmeR0BDP-2">
          <mxGeometry x="60" y="131.65714285714282" width="40" height="54.85714285714285" as="geometry" />
        </mxCell>
        <mxCell id="ZSukXJgvBtYMUmeR0BDP-15" value="3" style="strokeWidth=1;shadow=0;dashed=0;align=right;html=1;shape=mxgraph.mockup.forms.rrect;rSize=0;strokeColor=#999999;fontColor=#999999;verticalAlign=top;" vertex="1" parent="ZSukXJgvBtYMUmeR0BDP-2">
          <mxGeometry x="100" y="131.65714285714282" width="40" height="54.85714285714285" as="geometry" />
        </mxCell>
        <mxCell id="ZSukXJgvBtYMUmeR0BDP-16" value="4" style="strokeWidth=1;shadow=0;dashed=0;align=right;html=1;shape=mxgraph.mockup.forms.rrect;rSize=0;strokeColor=#999999;fontColor=#999999;verticalAlign=top;" vertex="1" parent="ZSukXJgvBtYMUmeR0BDP-2">
          <mxGeometry x="140" y="131.65714285714282" width="40" height="54.85714285714285" as="geometry" />
        </mxCell>
        <mxCell id="ZSukXJgvBtYMUmeR0BDP-17" value="5" style="strokeWidth=1;shadow=0;dashed=0;align=right;html=1;shape=mxgraph.mockup.forms.rrect;rSize=0;strokeColor=#999999;fontColor=#999999;verticalAlign=top;" vertex="1" parent="ZSukXJgvBtYMUmeR0BDP-2">
          <mxGeometry x="180" y="131.65714285714282" width="40" height="54.85714285714285" as="geometry" />
        </mxCell>
        <mxCell id="ZSukXJgvBtYMUmeR0BDP-18" value="6" style="strokeWidth=1;shadow=0;dashed=0;align=right;html=1;shape=mxgraph.mockup.forms.rrect;rSize=0;strokeColor=#999999;fontColor=#999999;verticalAlign=top;" vertex="1" parent="ZSukXJgvBtYMUmeR0BDP-2">
          <mxGeometry x="220" y="131.65714285714282" width="40" height="54.85714285714285" as="geometry" />
        </mxCell>
        <mxCell id="ZSukXJgvBtYMUmeR0BDP-19" value="7" style="strokeWidth=1;shadow=0;dashed=0;align=right;html=1;shape=mxgraph.mockup.forms.rrect;rSize=0;strokeColor=#999999;fontColor=#999999;verticalAlign=top;" vertex="1" parent="ZSukXJgvBtYMUmeR0BDP-2">
          <mxGeometry x="260" y="131.65714285714282" width="40" height="54.85714285714285" as="geometry" />
        </mxCell>
        <mxCell id="ZSukXJgvBtYMUmeR0BDP-20" value="8" style="strokeWidth=1;shadow=0;dashed=0;align=right;html=1;shape=mxgraph.mockup.forms.rrect;rSize=0;strokeColor=#999999;fontColor=#999999;verticalAlign=top;" vertex="1" parent="ZSukXJgvBtYMUmeR0BDP-2">
          <mxGeometry x="20" y="186.51428571428568" width="40" height="54.85714285714285" as="geometry" />
        </mxCell>
        <mxCell id="ZSukXJgvBtYMUmeR0BDP-21" value="9" style="strokeWidth=1;shadow=0;dashed=0;align=right;html=1;shape=mxgraph.mockup.forms.rrect;rSize=0;strokeColor=#999999;fontColor=#999999;verticalAlign=top;" vertex="1" parent="ZSukXJgvBtYMUmeR0BDP-2">
          <mxGeometry x="60" y="186.51428571428568" width="40" height="54.85714285714285" as="geometry" />
        </mxCell>
        <mxCell id="ZSukXJgvBtYMUmeR0BDP-22" value="10" style="strokeWidth=1;shadow=0;dashed=0;align=right;html=1;shape=mxgraph.mockup.forms.rrect;rSize=0;strokeColor=#999999;fontColor=#999999;verticalAlign=top;" vertex="1" parent="ZSukXJgvBtYMUmeR0BDP-2">
          <mxGeometry x="100" y="186.51428571428568" width="40" height="54.85714285714285" as="geometry" />
        </mxCell>
        <mxCell id="ZSukXJgvBtYMUmeR0BDP-23" value="11" style="strokeWidth=1;shadow=0;dashed=0;align=right;html=1;shape=mxgraph.mockup.forms.rrect;rSize=0;strokeColor=#999999;fontColor=#999999;verticalAlign=top;" vertex="1" parent="ZSukXJgvBtYMUmeR0BDP-2">
          <mxGeometry x="140" y="186.51428571428568" width="40" height="54.85714285714285" as="geometry" />
        </mxCell>
        <mxCell id="ZSukXJgvBtYMUmeR0BDP-24" value="12" style="strokeWidth=1;shadow=0;dashed=0;align=right;html=1;shape=mxgraph.mockup.forms.rrect;rSize=0;strokeColor=#999999;fontColor=#999999;verticalAlign=top;" vertex="1" parent="ZSukXJgvBtYMUmeR0BDP-2">
          <mxGeometry x="180" y="186.51428571428568" width="40" height="54.85714285714285" as="geometry" />
        </mxCell>
        <mxCell id="ZSukXJgvBtYMUmeR0BDP-25" value="13" style="strokeWidth=1;shadow=0;dashed=0;align=right;html=1;shape=mxgraph.mockup.forms.rrect;rSize=0;strokeColor=#999999;fontColor=#999999;verticalAlign=top;" vertex="1" parent="ZSukXJgvBtYMUmeR0BDP-2">
          <mxGeometry x="220" y="186.51428571428568" width="40" height="54.85714285714285" as="geometry" />
        </mxCell>
        <mxCell id="ZSukXJgvBtYMUmeR0BDP-26" value="14" style="strokeWidth=1;shadow=0;dashed=0;align=right;html=1;shape=mxgraph.mockup.forms.rrect;rSize=0;strokeColor=#999999;fontColor=#999999;verticalAlign=top;" vertex="1" parent="ZSukXJgvBtYMUmeR0BDP-2">
          <mxGeometry x="260" y="186.51428571428568" width="40" height="54.85714285714285" as="geometry" />
        </mxCell>
        <mxCell id="ZSukXJgvBtYMUmeR0BDP-27" value="15" style="strokeWidth=1;shadow=0;dashed=0;align=right;html=1;shape=mxgraph.mockup.forms.rrect;rSize=0;strokeColor=#999999;fontColor=#999999;verticalAlign=top;" vertex="1" parent="ZSukXJgvBtYMUmeR0BDP-2">
          <mxGeometry x="20" y="241.37142857142854" width="40" height="54.85714285714285" as="geometry" />
        </mxCell>
        <mxCell id="ZSukXJgvBtYMUmeR0BDP-28" value="16" style="strokeWidth=1;shadow=0;dashed=0;align=right;html=1;shape=mxgraph.mockup.forms.rrect;rSize=0;strokeColor=#999999;fontColor=#999999;verticalAlign=top;" vertex="1" parent="ZSukXJgvBtYMUmeR0BDP-2">
          <mxGeometry x="60" y="241.37142857142854" width="40" height="54.85714285714285" as="geometry" />
        </mxCell>
        <mxCell id="ZSukXJgvBtYMUmeR0BDP-29" value="17" style="strokeWidth=1;shadow=0;dashed=0;align=right;html=1;shape=mxgraph.mockup.forms.rrect;rSize=0;strokeColor=#999999;fontColor=#999999;verticalAlign=top;" vertex="1" parent="ZSukXJgvBtYMUmeR0BDP-2">
          <mxGeometry x="100" y="241.37142857142854" width="40" height="54.85714285714285" as="geometry" />
        </mxCell>
        <mxCell id="ZSukXJgvBtYMUmeR0BDP-30" value="18" style="strokeWidth=1;shadow=0;dashed=0;align=right;html=1;shape=mxgraph.mockup.forms.rrect;rSize=0;strokeColor=#999999;fontColor=#999999;verticalAlign=top;" vertex="1" parent="ZSukXJgvBtYMUmeR0BDP-2">
          <mxGeometry x="140" y="241.37142857142854" width="40" height="54.85714285714285" as="geometry" />
        </mxCell>
        <mxCell id="ZSukXJgvBtYMUmeR0BDP-31" value="19" style="strokeWidth=1;shadow=0;dashed=0;align=right;html=1;shape=mxgraph.mockup.forms.rrect;rSize=0;strokeColor=#999999;fontColor=#999999;verticalAlign=top;" vertex="1" parent="ZSukXJgvBtYMUmeR0BDP-2">
          <mxGeometry x="180" y="241.37142857142854" width="40" height="54.85714285714285" as="geometry" />
        </mxCell>
        <mxCell id="ZSukXJgvBtYMUmeR0BDP-32" value="20" style="strokeWidth=1;shadow=0;dashed=0;align=right;html=1;shape=mxgraph.mockup.forms.rrect;rSize=0;strokeColor=#999999;fontColor=#999999;verticalAlign=top;" vertex="1" parent="ZSukXJgvBtYMUmeR0BDP-2">
          <mxGeometry x="220" y="241.37142857142854" width="40" height="54.85714285714285" as="geometry" />
        </mxCell>
        <mxCell id="ZSukXJgvBtYMUmeR0BDP-33" value="21" style="strokeWidth=1;shadow=0;dashed=0;align=right;html=1;shape=mxgraph.mockup.forms.rrect;rSize=0;strokeColor=#999999;fontColor=#999999;verticalAlign=top;" vertex="1" parent="ZSukXJgvBtYMUmeR0BDP-2">
          <mxGeometry x="260" y="241.37142857142854" width="40" height="54.85714285714285" as="geometry" />
        </mxCell>
        <mxCell id="ZSukXJgvBtYMUmeR0BDP-34" value="22" style="strokeWidth=1;shadow=0;dashed=0;align=right;html=1;shape=mxgraph.mockup.forms.rrect;rSize=0;strokeColor=#999999;fontColor=#999999;verticalAlign=top;" vertex="1" parent="ZSukXJgvBtYMUmeR0BDP-2">
          <mxGeometry x="20" y="296.2285714285713" width="40" height="54.85714285714285" as="geometry" />
        </mxCell>
        <mxCell id="ZSukXJgvBtYMUmeR0BDP-35" value="23" style="strokeWidth=1;shadow=0;dashed=0;align=right;html=1;shape=mxgraph.mockup.forms.rrect;rSize=0;strokeColor=#999999;fontColor=#999999;verticalAlign=top;" vertex="1" parent="ZSukXJgvBtYMUmeR0BDP-2">
          <mxGeometry x="60" y="296.2285714285713" width="40" height="54.85714285714285" as="geometry" />
        </mxCell>
        <mxCell id="ZSukXJgvBtYMUmeR0BDP-36" value="25" style="strokeWidth=1;shadow=0;dashed=0;align=right;html=1;shape=mxgraph.mockup.forms.rrect;rSize=0;strokeColor=#999999;fontColor=#999999;verticalAlign=top;" vertex="1" parent="ZSukXJgvBtYMUmeR0BDP-2">
          <mxGeometry x="140" y="296.2285714285713" width="40" height="54.85714285714285" as="geometry" />
        </mxCell>
        <mxCell id="ZSukXJgvBtYMUmeR0BDP-37" value="26" style="strokeWidth=1;shadow=0;dashed=0;align=right;html=1;shape=mxgraph.mockup.forms.rrect;rSize=0;strokeColor=#999999;fontColor=#999999;verticalAlign=top;" vertex="1" parent="ZSukXJgvBtYMUmeR0BDP-2">
          <mxGeometry x="180" y="296.2285714285713" width="40" height="54.85714285714285" as="geometry" />
        </mxCell>
        <mxCell id="ZSukXJgvBtYMUmeR0BDP-38" value="27" style="strokeWidth=1;shadow=0;dashed=0;align=right;html=1;shape=mxgraph.mockup.forms.rrect;rSize=0;strokeColor=#999999;fontColor=#999999;verticalAlign=top;" vertex="1" parent="ZSukXJgvBtYMUmeR0BDP-2">
          <mxGeometry x="220" y="296.2285714285713" width="40" height="54.85714285714285" as="geometry" />
        </mxCell>
        <mxCell id="ZSukXJgvBtYMUmeR0BDP-39" value="28" style="strokeWidth=1;shadow=0;dashed=0;align=right;html=1;shape=mxgraph.mockup.forms.rrect;rSize=0;strokeColor=#999999;fontColor=#999999;verticalAlign=top;" vertex="1" parent="ZSukXJgvBtYMUmeR0BDP-2">
          <mxGeometry x="260" y="296.2285714285713" width="40" height="54.85714285714285" as="geometry" />
        </mxCell>
        <mxCell id="ZSukXJgvBtYMUmeR0BDP-40" value="29" style="strokeWidth=1;shadow=0;dashed=0;align=right;html=1;shape=mxgraph.mockup.forms.rrect;rSize=0;strokeColor=#999999;fontColor=#999999;verticalAlign=top;" vertex="1" parent="ZSukXJgvBtYMUmeR0BDP-2">
          <mxGeometry x="20" y="351.0857142857142" width="40" height="54.85714285714285" as="geometry" />
        </mxCell>
        <mxCell id="ZSukXJgvBtYMUmeR0BDP-41" value="30" style="strokeWidth=1;shadow=0;dashed=0;align=right;html=1;shape=mxgraph.mockup.forms.rrect;rSize=0;strokeColor=#999999;fontColor=#999999;verticalAlign=top;" vertex="1" parent="ZSukXJgvBtYMUmeR0BDP-2">
          <mxGeometry x="60" y="351.0857142857142" width="40" height="54.85714285714285" as="geometry" />
        </mxCell>
        <mxCell id="ZSukXJgvBtYMUmeR0BDP-42" value="31" style="strokeWidth=1;shadow=0;dashed=0;align=right;html=1;shape=mxgraph.mockup.forms.rrect;rSize=0;strokeColor=#999999;fontColor=#999999;verticalAlign=top;" vertex="1" parent="ZSukXJgvBtYMUmeR0BDP-2">
          <mxGeometry x="100" y="351.0857142857142" width="40" height="54.85714285714285" as="geometry" />
        </mxCell>
        <mxCell id="ZSukXJgvBtYMUmeR0BDP-43" value="1" style="strokeWidth=1;shadow=0;dashed=0;align=right;html=1;shape=mxgraph.mockup.forms.rrect;rSize=0;strokeColor=#999999;fontColor=#999999;fillColor=#ddeeff;verticalAlign=top;" vertex="1" parent="ZSukXJgvBtYMUmeR0BDP-2">
          <mxGeometry x="140" y="351.0857142857142" width="40" height="54.85714285714285" as="geometry" />
        </mxCell>
        <mxCell id="ZSukXJgvBtYMUmeR0BDP-44" value="2" style="strokeWidth=1;shadow=0;dashed=0;align=right;html=1;shape=mxgraph.mockup.forms.rrect;rSize=0;strokeColor=#999999;fontColor=#999999;fillColor=#ddeeff;verticalAlign=top;" vertex="1" parent="ZSukXJgvBtYMUmeR0BDP-2">
          <mxGeometry x="180" y="351.0857142857142" width="40" height="54.85714285714285" as="geometry" />
        </mxCell>
        <mxCell id="ZSukXJgvBtYMUmeR0BDP-45" value="3" style="strokeWidth=1;shadow=0;dashed=0;align=right;html=1;shape=mxgraph.mockup.forms.rrect;rSize=0;strokeColor=#999999;fontColor=#999999;fillColor=#ddeeff;verticalAlign=top;" vertex="1" parent="ZSukXJgvBtYMUmeR0BDP-2">
          <mxGeometry x="220" y="351.0857142857142" width="40" height="54.85714285714285" as="geometry" />
        </mxCell>
        <mxCell id="ZSukXJgvBtYMUmeR0BDP-46" value="4" style="strokeWidth=1;shadow=0;dashed=0;align=right;html=1;shape=mxgraph.mockup.forms.rrect;rSize=0;strokeColor=#999999;fontColor=#999999;fillColor=#ddeeff;verticalAlign=top;" vertex="1" parent="ZSukXJgvBtYMUmeR0BDP-2">
          <mxGeometry x="260" y="351.0857142857142" width="40" height="54.85714285714285" as="geometry" />
        </mxCell>
        <mxCell id="ZSukXJgvBtYMUmeR0BDP-47" value="5" style="strokeWidth=1;shadow=0;dashed=0;align=right;html=1;shape=mxgraph.mockup.forms.rrect;rSize=0;strokeColor=#999999;fontColor=#999999;fillColor=#ddeeff;verticalAlign=top;" vertex="1" parent="ZSukXJgvBtYMUmeR0BDP-2">
          <mxGeometry x="20" y="405.942857142857" width="40" height="54.85714285714285" as="geometry" />
        </mxCell>
        <mxCell id="ZSukXJgvBtYMUmeR0BDP-48" value="6" style="strokeWidth=1;shadow=0;dashed=0;align=right;html=1;shape=mxgraph.mockup.forms.rrect;rSize=0;strokeColor=#999999;fontColor=#999999;fillColor=#ddeeff;verticalAlign=top;" vertex="1" parent="ZSukXJgvBtYMUmeR0BDP-2">
          <mxGeometry x="60" y="405.942857142857" width="40" height="54.85714285714285" as="geometry" />
        </mxCell>
        <mxCell id="ZSukXJgvBtYMUmeR0BDP-49" value="7" style="strokeWidth=1;shadow=0;dashed=0;align=right;html=1;shape=mxgraph.mockup.forms.rrect;rSize=0;strokeColor=#999999;fontColor=#999999;fillColor=#ddeeff;verticalAlign=top;" vertex="1" parent="ZSukXJgvBtYMUmeR0BDP-2">
          <mxGeometry x="100" y="405.942857142857" width="40" height="54.85714285714285" as="geometry" />
        </mxCell>
        <mxCell id="ZSukXJgvBtYMUmeR0BDP-50" value="8" style="strokeWidth=1;shadow=0;dashed=0;align=right;html=1;shape=mxgraph.mockup.forms.rrect;rSize=0;strokeColor=#999999;fontColor=#999999;fillColor=#ddeeff;verticalAlign=top;" vertex="1" parent="ZSukXJgvBtYMUmeR0BDP-2">
          <mxGeometry x="140" y="405.942857142857" width="40" height="54.85714285714285" as="geometry" />
        </mxCell>
        <mxCell id="ZSukXJgvBtYMUmeR0BDP-51" value="9" style="strokeWidth=1;shadow=0;dashed=0;align=right;html=1;shape=mxgraph.mockup.forms.rrect;rSize=0;strokeColor=#999999;fontColor=#999999;fillColor=#ddeeff;verticalAlign=top;" vertex="1" parent="ZSukXJgvBtYMUmeR0BDP-2">
          <mxGeometry x="180" y="405.942857142857" width="40" height="54.85714285714285" as="geometry" />
        </mxCell>
        <mxCell id="ZSukXJgvBtYMUmeR0BDP-52" value="10" style="strokeWidth=1;shadow=0;dashed=0;align=right;html=1;shape=mxgraph.mockup.forms.rrect;rSize=0;strokeColor=#999999;fontColor=#999999;fillColor=#ddeeff;verticalAlign=top;" vertex="1" parent="ZSukXJgvBtYMUmeR0BDP-2">
          <mxGeometry x="220" y="405.942857142857" width="40" height="54.85714285714285" as="geometry" />
        </mxCell>
        <mxCell id="ZSukXJgvBtYMUmeR0BDP-53" value="11" style="strokeWidth=1;shadow=0;dashed=0;align=right;html=1;shape=mxgraph.mockup.forms.rrect;rSize=0;strokeColor=#999999;fontColor=#999999;fillColor=#ddeeff;verticalAlign=top;" vertex="1" parent="ZSukXJgvBtYMUmeR0BDP-2">
          <mxGeometry x="260" y="405.942857142857" width="40" height="54.85714285714285" as="geometry" />
        </mxCell>
        <mxCell id="ZSukXJgvBtYMUmeR0BDP-55" value="24" style="strokeWidth=1;shadow=0;dashed=0;align=right;html=1;shape=mxgraph.mockup.forms.rrect;rSize=0;strokeColor=#999999;fontColor=#999999;verticalAlign=top;fillColor=#FFF2CC;" vertex="1" parent="ZSukXJgvBtYMUmeR0BDP-2">
          <mxGeometry x="100" y="296.2285714285713" width="40" height="54.85714285714285" as="geometry" />
        </mxCell>
        <mxCell id="ZSukXJgvBtYMUmeR0BDP-57" value="A工事" style="rounded=1;whiteSpace=wrap;html=1;fillColor=#dae8fc;strokeColor=#6c8ebf;" vertex="1" parent="ZSukXJgvBtYMUmeR0BDP-2">
          <mxGeometry x="100" y="314.73" width="40" height="17.45" as="geometry" />
        </mxCell>
        <mxCell id="ZSukXJgvBtYMUmeR0BDP-113" value="A工事" style="rounded=1;whiteSpace=wrap;html=1;fillColor=#dae8fc;strokeColor=#6c8ebf;" vertex="1" parent="ZSukXJgvBtYMUmeR0BDP-2">
          <mxGeometry x="60" y="315.73" width="40" height="17.45" as="geometry" />
        </mxCell>
        <mxCell id="ZSukXJgvBtYMUmeR0BDP-114" value="B工事" style="rounded=1;whiteSpace=wrap;html=1;fillColor=#dae8fc;strokeColor=#6c8ebf;" vertex="1" parent="1">
          <mxGeometry x="199" y="493.73" width="40" height="17.45" as="geometry" />
        </mxCell>
        <mxCell id="ZSukXJgvBtYMUmeR0BDP-115" value="" style="triangle;whiteSpace=wrap;html=1;rotation=90;" vertex="1" parent="1">
          <mxGeometry x="819" y="156" width="10" height="20" as="geometry" />
        </mxCell>
      </root>
    </mxGraphModel>
  </diagram>
</mxfile>
